<svg width="200" height="120" viewBox="0 0 200 120" fill="none" xmlns="http://www.w3.org/2000/svg">
<path fill-rule="evenodd" clip-rule="evenodd" d="M61.4322 40H6.28761C2.79779 40 -0.027296 42.8528 0.000199007 46.3149V67.3646C0.000199007 70.8543 2.82549 73.6794 6.31531 73.6794H32.4334L44.371 80.3267L41.6566 73.6794H61.4322C64.9221 73.6794 67.747 70.8543 67.747 67.3646V46.3149C67.747 42.8251 64.9221 40 61.4322 40ZM5.12446 44.8747C4.34894 44.93 3.76729 45.207 3.37954 45.7333C2.99179 46.2318 2.85331 46.8688 2.93639 47.5889C4.57051 57.9754 6.09384 64.9826 7.50639 68.6109C8.06033 69.9403 8.69736 70.5775 9.44518 70.5221C10.6084 70.4389 11.9933 68.8325 13.6274 65.7028C14.486 63.9301 15.8155 61.2713 17.6158 57.726C19.1113 62.9607 21.1609 66.8938 23.7368 69.5249C24.457 70.2727 25.2048 70.6051 25.9248 70.5497C26.5619 70.4943 27.0604 70.1619 27.3927 69.5525C27.6697 69.0263 27.7805 68.417 27.7251 67.7246C27.5589 65.2042 27.8083 61.6867 28.5007 57.1721C29.2207 52.519 30.1071 49.1677 31.1873 47.1735C31.4088 46.758 31.4919 46.3426 31.4642 45.844C31.4088 45.207 31.1319 44.6808 30.6057 44.2653C30.0795 43.8499 29.4977 43.656 28.8607 43.7114C28.0575 43.7668 27.4481 44.1545 27.0327 44.93C25.3156 48.0598 24.0968 53.1283 23.3768 60.1633C22.3242 57.5045 21.4379 54.3747 20.7455 50.691C20.4409 49.0569 19.6931 48.2814 18.4743 48.3645C17.6435 48.4199 16.9511 48.9738 16.3971 50.0263L10.3315 61.5759C9.33439 57.5598 8.39269 52.6575 7.53409 46.8688C7.34021 45.4286 6.53699 44.7639 5.12446 44.8747ZM58.4964 46.8689C60.463 47.2844 61.9309 48.3369 62.9279 50.0818C63.8143 51.5774 64.2573 53.3777 64.2573 55.5381C64.2573 58.3908 63.5373 60.9943 62.097 63.3763C60.4352 66.146 58.2748 67.5308 55.5883 67.5308C55.1175 67.5308 54.6189 67.4754 54.0925 67.3646C52.1262 66.9492 50.6582 65.8968 49.661 64.1518C48.7748 62.6285 48.3317 60.8005 48.3317 58.6678C48.3317 55.815 49.0518 53.2115 50.492 50.8573C52.1816 48.0876 54.3419 46.7027 57.0009 46.7027C57.4716 46.7027 57.9702 46.7581 58.4964 46.8689ZM57.3332 61.8529C58.358 60.9389 59.0504 59.5818 59.4382 57.7538C59.549 57.1168 59.632 56.4244 59.632 55.7042C59.632 54.901 59.4658 54.0424 59.1334 53.1838C58.718 52.1036 58.164 51.522 57.4993 51.3835C56.5023 51.1896 55.5329 51.7436 54.6189 53.1007C53.8711 54.1532 53.4001 55.2611 53.1509 56.3967C53.0124 57.0337 52.957 57.7262 52.957 58.4186C52.957 59.2218 53.1232 60.0803 53.4555 60.9389C53.8711 62.0191 54.4249 62.6007 55.0897 62.7393C55.7821 62.8777 56.5299 62.5731 57.3332 61.8529ZM45.5619 50.0818C44.5648 48.3369 43.0692 47.2844 41.1304 46.8689C40.6041 46.7581 40.1057 46.7027 39.6347 46.7027C36.9759 46.7027 34.8156 48.0876 33.126 50.8573C31.6857 53.2115 30.9657 55.815 30.9657 58.6678C30.9657 60.8005 31.4088 62.6285 32.295 64.1518C33.2922 65.8968 34.7602 66.9492 36.7265 67.3646C37.2527 67.4754 37.7513 67.5308 38.2223 67.5308C40.9088 67.5308 43.0692 66.146 44.731 63.3763C46.1713 60.9943 46.8913 58.3908 46.8913 55.5381C46.8913 53.3777 46.4481 51.5774 45.5619 50.0818ZM42.072 57.7538C41.6844 59.5818 40.9918 60.9389 39.9671 61.8529C39.1639 62.5731 38.4161 62.8777 37.7237 62.7393C37.0589 62.6007 36.5049 62.0191 36.0895 60.9389C35.7572 60.0803 35.591 59.2218 35.591 58.4186C35.591 57.7262 35.6464 57.0337 35.7849 56.3967C36.0341 55.2611 36.5049 54.1532 37.2527 53.1007C38.1669 51.7436 39.1363 51.1896 40.1333 51.3835C40.798 51.522 41.352 52.1036 41.7674 53.1838C42.0998 54.0424 42.266 54.901 42.266 55.7042C42.266 56.4244 42.2106 57.1168 42.072 57.7538Z" fill="white"/>
<path fill-rule="evenodd" clip-rule="evenodd" d="M74.7543 49.8323C72.8986 51.6603 71.9846 53.9869 71.9846 56.812C71.9846 59.831 72.8986 62.2959 74.7267 64.1517C76.5547 66.0074 78.9366 66.949 81.9002 66.949C82.7588 66.949 83.7281 66.8106 84.7807 66.5058V62.0189C83.8113 62.2959 82.9804 62.4345 82.2602 62.4345C80.7922 62.4345 79.629 61.9359 78.7427 60.9665C77.8565 59.9694 77.4133 58.64 77.4133 56.9504C77.4133 55.3717 77.8565 54.07 78.715 53.0729C79.6012 52.0481 80.6814 51.5495 82.011 51.5495C82.8696 51.5495 83.7835 51.688 84.7807 51.965V47.4781C83.8667 47.2288 82.8419 47.118 81.7616 47.118C78.9366 47.0903 76.6101 48.0043 74.7543 49.8323ZM93.9761 47.0903C91.428 47.0903 89.4338 47.949 87.9935 49.6385C86.5533 51.328 85.8609 53.7099 85.8609 56.7566C85.8609 60.0525 86.5809 62.5729 87.9935 64.3179C89.406 66.0628 91.4834 66.949 94.1977 66.949C96.8288 66.949 98.8506 66.0628 100.263 64.3179C101.676 62.5729 102.396 60.1079 102.396 56.9504C102.396 53.793 101.676 51.3557 100.236 49.6385C98.7676 47.949 96.6903 47.0903 93.9761 47.0903ZM96.1641 61.4927C95.6655 62.2683 94.9177 62.6561 93.9761 62.6561C93.0897 62.6561 92.4249 62.2683 91.9542 61.4927C91.4834 60.7172 91.2618 59.1662 91.2618 56.812C91.2618 53.1837 92.1757 51.3834 94.0315 51.3834C95.9703 51.3834 96.9672 53.2114 96.9672 56.8951C96.9396 59.1662 96.6626 60.7172 96.1641 61.4927ZM116.078 47.6166L115.081 51.8542C114.832 52.9344 114.583 54.0423 114.361 55.1778L113.807 58.1138C113.281 55.1778 112.561 51.688 111.647 47.6166H105.221L102.811 66.4782H107.631L108.932 53.4883L112.228 66.4782H115.663L118.82 53.516L120.177 66.4782H125.218L122.67 47.6166H116.078ZM139.15 47.6166L138.153 51.8542C137.903 52.9344 137.654 54.0423 137.433 55.1778L136.879 58.1138C136.352 55.1778 135.632 51.688 134.718 47.6166H128.293L125.883 66.4782H130.702L132.004 53.4883L135.3 66.4782H138.734L141.864 53.516L143.221 66.4782H148.262L145.714 47.6166H139.15ZM154.826 59.0278H159.341V55.1224H154.826V51.6603H160.033V47.6443H149.73V66.5058H160.061V62.4899H154.826V59.0278ZM174.408 56.0364C174.934 55.1778 175.211 54.2915 175.211 53.3775C175.211 51.6049 174.519 50.1924 173.134 49.1676C171.749 48.1428 169.838 47.6166 167.456 47.6166H161.529V66.4782H166.625V57.8922H166.708L170.835 66.4782H176.208L172.137 57.9752C173.106 57.5321 173.882 56.895 174.408 56.0364ZM166.597 55.7318V51.2449C167.816 51.2726 168.675 51.4665 169.201 51.8542C169.727 52.242 169.976 52.8513 169.976 53.7376C169.976 55.0394 168.841 55.7041 166.597 55.7318ZM178.202 49.8323C176.347 51.6603 175.433 53.9869 175.433 56.812C175.433 59.831 176.347 62.2959 178.175 64.1517C180.003 66.0074 182.384 66.949 185.349 66.949C186.207 66.949 187.177 66.8106 188.228 66.5058V62.0189C187.26 62.2959 186.428 62.4345 185.708 62.4345C184.241 62.4345 183.078 61.9359 182.191 60.9665C181.304 59.9694 180.862 58.64 180.862 56.9504C180.862 55.3717 181.304 54.07 182.163 53.0729C183.049 52.0481 184.129 51.5495 185.458 51.5495C186.317 51.5495 187.232 51.688 188.228 51.965V47.4781C187.315 47.2288 186.29 47.118 185.211 47.118C182.412 47.0903 180.058 48.0043 178.202 49.8323ZM194.738 62.4345V59H199.251V55.0947H194.738V51.6326H199.972V47.6166H189.669V66.4782H200V62.4621H194.738V62.4345Z" fill="white"/>
</svg>
